<?xml version="1.0" encoding="iso-8859-1"?>
<!-- Uploaded to: SVG Repo, www.svgrepo.com, Generator: SVG Repo Mixer Tools -->
<!DOCTYPE svg PUBLIC "-//W3C//DTD SVG 1.1//EN" "http://www.w3.org/Graphics/SVG/1.1/DTD/svg11.dtd">
<svg fill="#000000" version="1.1" id="Capa_1" xmlns="http://www.w3.org/2000/svg" xmlns:xlink="http://www.w3.org/1999/xlink" 
	 width="800px" height="800px" viewBox="0 0 463.108 463.108"
	 xml:space="preserve">
<g>
	<g>
		<path d="M321.257,18.995c-60.927,0-113,33.902-133.049,81.348c-13.443-9.066-28.65-14.285-44.928-14.792
			c-0.072-0.003-0.145-0.004-0.217-0.004h-3.756c-0.072,0-0.145,0.001-0.219,0.004c-52.664,1.643-94.141,52.55-100.861,123.797
			c-1.678,17.787-0.754,30.547-0.012,40.808c1.25,17.229,1.176,23.554-8.781,30.741c-1.828,1.32-2.908,3.439-2.902,5.693
			s1.098,4.367,2.932,5.678c5.521,3.945,15.732,6.209,28.016,6.209c3.285,0,6.607-0.174,9.797-0.498
			C45.246,310.467,0,337.647,0,381.299v55.814c0,3.867,3.133,7,7,7h268.373c3.867,0,7-3.133,7-7v-55.814
			c0-43.632-45.205-70.807-67.277-83.32c3.188,0.324,6.51,0.498,9.797,0.498c12.281,0,22.494-2.264,28.016-6.209
			c1.834-1.311,2.927-3.424,2.933-5.678s-1.076-4.373-2.902-5.693c-9.956-7.188-10.03-13.514-8.78-30.75
			c0.047-0.648,0.094-1.307,0.143-1.977c16.967,9.648,36.449,16.211,57.449,18.744v45.76c0,4.832,2.946,9.178,7.438,10.967
			c1.418,0.563,2.898,0.838,4.365,0.838c3.182,0,6.301-1.288,8.576-3.69l62.092-65.598c22.766-9.902,42.086-24.982,55.988-43.73
			c14.981-20.201,22.899-43.687,22.899-67.918C463.106,74.867,399.474,18.995,321.257,18.995z M203.144,211.255l-0.262,0.034
			c-2.797,0.371-5.098,2.386-5.836,5.109l-0.086,0.315c-8.363,30.334-30.754,62.574-55.773,62.574
			c-24.943,0-47.352-32.229-55.76-62.514l-0.102-0.375c-0.736-2.722-3.035-4.735-5.83-5.108l-0.295-0.04
			c-3.66-0.501-8.592-5.05-10.514-12.47c-1.318-5.163-0.895-10.135,1.164-13.639c0.055-0.094,0.895-1.603,1.953-2.242
			c5.967,1.971,11.979,2.97,17.885,2.97c34.443,0,56.395-33.281,60.291-39.672c8.205,3.854,14.254,7.868,18.941,12.555
			c9.461,9.461,13.105,19.456,15.775,26.775c0.768,2.104,1.637,4.489,2.467,6.149c0.898,1.797,2.525,3.121,4.467,3.636
			c1.942,0.515,4.01,0.17,5.682-0.945c1.473-0.983,3.178-2.446,5.221-4.482c2.459-2.458,4.598-5.075,6.371-7.791
			c0.045,0.002,0.063,0.003,0.053,0.001c1.355,0.347,2.598,1.389,3.543,3.012c2.055,3.423,2.5,8.527,1.193,13.646
			C211.759,206.273,206.853,210.804,203.144,211.255z M372.812,234.387c-1.528,0.635-2.908,1.584-4.047,2.787l-43.408,45.857
			v-26.949c0-6.287-4.928-11.471-11.207-11.79c-26.401-1.338-50.374-10.058-69.243-23.715c-0.146-3.514-0.386-7.239-0.763-11.23
			c-3.592-38.077-17.113-70.34-36.961-92.383c13.699-42.805,59.646-74.362,114.074-74.362c65.197,0,118.242,45.281,118.242,100.938
			C439.499,181.917,413.324,217.575,372.812,234.387z"/>
		<circle cx="273.408" cy="141.965" r="14.886"/>
		<circle cx="321.255" cy="141.965" r="14.886"/>
		<circle cx="369.103" cy="141.965" r="14.886"/>
	</g>
</g>
</svg>